<svg width="100%" height="100%" id="svg" viewBox="0 0 1440 390" xmlns="http://www.w3.org/2000/svg" class="transition duration-300 ease-in-out delay-150"><defs><linearGradient id="gradient" x1="0%" y1="50%" x2="100%" y2="50%"><stop offset="5%" stop-color="#00d084"></stop><stop offset="95%" stop-color="#8ed1fc"></stop></linearGradient></defs><path d="M 0,400 L 0,100 C 46.15664720027482,97.89075918928204 92.31329440054964,95.78151837856407 167,103 C 241.68670559945036,110.21848162143593 344.90346959807624,126.76468567502577 415,126 C 485.09653040192376,125.23531432497423 522.0728272071453,107.15973892133287 591,92 C 659.9271727928547,76.84026107866713 760.8052215733426,64.59635863964274 828,57 C 895.1947784266574,49.40364136035726 928.7062864994848,46.4548265200962 1002,52 C 1075.2937135005152,57.5451734799038 1188.3696324287187,71.5843352799725 1268,81 C 1347.6303675712813,90.4156647200275 1393.8151837856408,95.20783236001375 1440,100 L 1440,400 L 0,400 Z" stroke="none" stroke-width="0" fill="url(#gradient)" fill-opacity="0.53" class="transition-all duration-300 ease-in-out delay-150 path-0"></path><defs><linearGradient id="gradient" x1="0%" y1="50%" x2="100%" y2="50%"><stop offset="5%" stop-color="#00d084"></stop><stop offset="95%" stop-color="#8ed1fc"></stop></linearGradient></defs><path d="M 0,400 L 0,233 C 75.35829611817243,255.9488148402611 150.71659223634487,278.8976296805222 210,261 C 269.28340776365513,243.10237031947784 312.49192717279294,184.3582961181725 374,186 C 435.50807282720706,187.6417038818275 515.3156990724835,249.66918584678803 598,269 C 680.6843009275165,288.330814153212 766.2452765372726,264.9649604946754 840,252 C 913.7547234627274,239.03503950532462 975.7031947784265,236.4709721745105 1039,243 C 1102.2968052215735,249.5290278254895 1166.9419443490212,265.1511508072827 1234,265 C 1301.0580556509788,264.8488491927173 1370.5290278254893,248.92442459635865 1440,233 L 1440,400 L 0,400 Z" stroke="none" stroke-width="0" fill="url(#gradient)" fill-opacity="1" class="transition-all duration-300 ease-in-out delay-150 path-1"></path></svg>