<?xml version="1.0" standalone="no"?>
<svg xmlns:xlink="http://www.w3.org/1999/xlink" id="wave" style="transform:rotate(0deg); transition: 0.3s" viewBox="0 0 1440 300" version="1.1" xmlns="http://www.w3.org/2000/svg"><defs><linearGradient id="sw-gradient-0" x1="0" x2="0" y1="1" y2="0"><stop stop-color="rgba(112.865, 228.049, 142.104, 1)" offset="0%"/><stop stop-color="rgba(47, 164, 92, 1)" offset="100%"/></linearGradient></defs><path style="transform:translate(0, 0px); opacity:1" fill="url(#sw-gradient-0)" d="M0,0L60,0C120,0,240,0,360,30C480,60,600,120,720,155C840,190,960,200,1080,175C1200,150,1320,90,1440,85C1560,80,1680,130,1800,155C1920,180,2040,180,2160,190C2280,200,2400,220,2520,210C2640,200,2760,160,2880,135C3000,110,3120,100,3240,115C3360,130,3480,170,3600,160C3720,150,3840,90,3960,60C4080,30,4200,30,4320,60C4440,90,4560,150,4680,190C4800,230,4920,250,5040,225C5160,200,5280,130,5400,125C5520,120,5640,180,5760,195C5880,210,6000,180,6120,170C6240,160,6360,170,6480,170C6600,170,6720,160,6840,175C6960,190,7080,230,7200,210C7320,190,7440,110,7560,65C7680,20,7800,10,7920,35C8040,60,8160,120,8280,130C8400,140,8520,100,8580,80L8640,60L8640,300L8580,300C8520,300,8400,300,8280,300C8160,300,8040,300,7920,300C7800,300,7680,300,7560,300C7440,300,7320,300,7200,300C7080,300,6960,300,6840,300C6720,300,6600,300,6480,300C6360,300,6240,300,6120,300C6000,300,5880,300,5760,300C5640,300,5520,300,5400,300C5280,300,5160,300,5040,300C4920,300,4800,300,4680,300C4560,300,4440,300,4320,300C4200,300,4080,300,3960,300C3840,300,3720,300,3600,300C3480,300,3360,300,3240,300C3120,300,3000,300,2880,300C2760,300,2640,300,2520,300C2400,300,2280,300,2160,300C2040,300,1920,300,1800,300C1680,300,1560,300,1440,300C1320,300,1200,300,1080,300C960,300,840,300,720,300C600,300,480,300,360,300C240,300,120,300,60,300L0,300Z"/><defs><linearGradient id="sw-gradient-1" x1="0" x2="0" y1="1" y2="0"><stop stop-color="rgba(106.234, 205.281, 131.376, 1)" offset="0%"/><stop stop-color="rgba(32.196, 143.807, 75.124, 1)" offset="100%"/></linearGradient></defs><path style="transform:translate(0, 50px); opacity:0.9" fill="url(#sw-gradient-1)" d="M0,240L60,210C120,180,240,120,360,80C480,40,600,20,720,35C840,50,960,100,1080,105C1200,110,1320,70,1440,65C1560,60,1680,90,1800,130C1920,170,2040,220,2160,230C2280,240,2400,210,2520,185C2640,160,2760,140,2880,125C3000,110,3120,100,3240,110C3360,120,3480,150,3600,175C3720,200,3840,220,3960,205C4080,190,4200,140,4320,125C4440,110,4560,130,4680,120C4800,110,4920,70,5040,55C5160,40,5280,50,5400,70C5520,90,5640,120,5760,135C5880,150,6000,150,6120,160C6240,170,6360,190,6480,170C6600,150,6720,90,6840,75C6960,60,7080,90,7200,100C7320,110,7440,100,7560,90C7680,80,7800,70,7920,95C8040,120,8160,180,8280,200C8400,220,8520,200,8580,190L8640,180L8640,300L8580,300C8520,300,8400,300,8280,300C8160,300,8040,300,7920,300C7800,300,7680,300,7560,300C7440,300,7320,300,7200,300C7080,300,6960,300,6840,300C6720,300,6600,300,6480,300C6360,300,6240,300,6120,300C6000,300,5880,300,5760,300C5640,300,5520,300,5400,300C5280,300,5160,300,5040,300C4920,300,4800,300,4680,300C4560,300,4440,300,4320,300C4200,300,4080,300,3960,300C3840,300,3720,300,3600,300C3480,300,3360,300,3240,300C3120,300,3000,300,2880,300C2760,300,2640,300,2520,300C2400,300,2280,300,2160,300C2040,300,1920,300,1800,300C1680,300,1560,300,1440,300C1320,300,1200,300,1080,300C960,300,840,300,720,300C600,300,480,300,360,300C240,300,120,300,60,300L0,300Z"/><defs><linearGradient id="sw-gradient-2" x1="0" x2="0" y1="1" y2="0"><stop stop-color="rgba(128.496, 187.066, 143.364, 1)" offset="0%"/><stop stop-color="rgba(21.789, 130.147, 63.465, 1)" offset="100%"/></linearGradient></defs><path style="transform:translate(0, 100px); opacity:0.8" fill="url(#sw-gradient-2)" d="M0,90L60,75C120,60,240,30,360,60C480,90,600,180,720,215C840,250,960,230,1080,210C1200,190,1320,170,1440,150C1560,130,1680,110,1800,130C1920,150,2040,210,2160,235C2280,260,2400,250,2520,250C2640,250,2760,260,2880,265C3000,270,3120,270,3240,245C3360,220,3480,170,3600,130C3720,90,3840,60,3960,40C4080,20,4200,10,4320,50C4440,90,4560,180,4680,180C4800,180,4920,90,5040,55C5160,20,5280,40,5400,40C5520,40,5640,20,5760,45C5880,70,6000,140,6120,150C6240,160,6360,110,6480,95C6600,80,6720,100,6840,135C6960,170,7080,220,7200,245C7320,270,7440,270,7560,255C7680,240,7800,210,7920,180C8040,150,8160,120,8280,115C8400,110,8520,130,8580,140L8640,150L8640,300L8580,300C8520,300,8400,300,8280,300C8160,300,8040,300,7920,300C7800,300,7680,300,7560,300C7440,300,7320,300,7200,300C7080,300,6960,300,6840,300C6720,300,6600,300,6480,300C6360,300,6240,300,6120,300C6000,300,5880,300,5760,300C5640,300,5520,300,5400,300C5280,300,5160,300,5040,300C4920,300,4800,300,4680,300C4560,300,4440,300,4320,300C4200,300,4080,300,3960,300C3840,300,3720,300,3600,300C3480,300,3360,300,3240,300C3120,300,3000,300,2880,300C2760,300,2640,300,2520,300C2400,300,2280,300,2160,300C2040,300,1920,300,1800,300C1680,300,1560,300,1440,300C1320,300,1200,300,1080,300C960,300,840,300,720,300C600,300,480,300,360,300C240,300,120,300,60,300L0,300Z"/></svg>